<?xml version="1.0" encoding="UTF-8" standalone="no"?>
<!-- Created with Inkscape (http://www.inkscape.org/) -->
<svg
   xmlns:dc="http://purl.org/dc/elements/1.1/"
   xmlns:cc="http://creativecommons.org/ns#"
   xmlns:rdf="http://www.w3.org/1999/02/22-rdf-syntax-ns#"
   xmlns:svg="http://www.w3.org/2000/svg"
   xmlns="http://www.w3.org/2000/svg"
   xmlns:sodipodi="http://sodipodi.sourceforge.net/DTD/sodipodi-0.dtd"
   xmlns:inkscape="http://www.inkscape.org/namespaces/inkscape"
   width="95"
   height="24"
   id="svg5564"
   sodipodi:version="0.32"
   inkscape:version="0.46"
   version="1.0"
   sodipodi:docname="École polytechnique fédérale de Zurich.svg"
   inkscape:output_extension="org.inkscape.output.svg.inkscape">
  <defs
     id="defs5566">
    <clipPath
       clipPathUnits="userSpaceOnUse"
       id="clipPath2825">
      <path
         d="M 0,841 L 595,841 L 595,0 L 0,0 L 0,841 z"
         id="path2827" />
    </clipPath>
    <inkscape:perspective
       sodipodi:type="inkscape:persp3d"
       inkscape:vp_x="0 : 526.18109 : 1"
       inkscape:vp_y="0 : 1000 : 0"
       inkscape:vp_z="744.09448 : 526.18109 : 1"
       inkscape:persp3d-origin="372.04724 : 350.78739 : 1"
       id="perspective5572" />
  </defs>
  <sodipodi:namedview
     id="base"
     pagecolor="#ffffff"
     bordercolor="#666666"
     borderopacity="1.0"
     inkscape:pageopacity="0.0"
     inkscape:pageshadow="2"
     inkscape:zoom="9.8515645"
     inkscape:cx="47.200625"
     inkscape:cy="11.922814"
     inkscape:document-units="px"
     inkscape:current-layer="layer1"
     showgrid="false"
     inkscape:window-width="1024"
     inkscape:window-height="712"
     inkscape:window-x="-4"
     inkscape:window-y="-4" />
  <metadata
     id="metadata5569">
    <rdf:RDF>
      <cc:Work
         rdf:about="">
        <dc:format>image/svg+xml</dc:format>
        <dc:type
           rdf:resource="http://purl.org/dc/dcmitype/StillImage" />
      </cc:Work>
    </rdf:RDF>
  </metadata>
  <g
     inkscape:label="Calque 1"
     inkscape:groupmode="layer"
     id="layer1"
     transform="translate(247.20062,93.846344)">
    <g
       id="g2813"
       transform="matrix(1.25,0,0,-1.25,-225.052,-93.846344)"
       style="fill:#000000;fill-opacity:1">
      <path
         d="M 0,0 L -0.569,-2.611 L 1.121,-2.611 L 1.751,0 L 4.242,0 L 2.631,-7.235 L 0.119,-7.233 L 0.699,-4.455 L -0.944,-4.455 L -1.616,-7.233 L -4.205,-7.232 L -3.01,-1.877 L -5.249,-1.875 L -6.442,-7.235 L -9.104,-7.233 L -7.914,-1.875 L -13.749,-1.875 L -13.943,-2.74 L -10.346,-2.74 L -10.725,-4.445 L -14.353,-4.445 L -14.561,-5.354 L -10.797,-5.354 L -11.217,-7.233 L -17.648,-7.233 L -16.037,0 L 0,0 z"
         style="fill:#000000;fill-opacity:1;fill-rule:nonzero;stroke:none"
         id="path2815" />
    </g>
    <g
       id="g2817"
       transform="matrix(1.25,0,0,-1.25,-247.05149,-77.246094)"
       style="fill:#000000;fill-opacity:1">
      <path
         d="M 0,0 L 0,2.444 L 1.289,2.444 L 1.289,2.113 L 0.394,2.113 L 0.394,1.419 L 1.245,1.419 L 1.245,1.1 L 0.394,1.1 L 0.394,0.339 L 1.289,0.339 L 1.289,0 L 0,0 z"
         style="fill:#000000;fill-opacity:1;fill-rule:nonzero;stroke:none"
         id="path2819" />
    </g>
    <g
       transform="matrix(1.25,0,0,-1.25,-663.42112,832.35966)"
       id="g2821"
       style="fill:#000000;fill-opacity:1">
      <g
         id="g2823"
         clip-path="url(#clipPath2825)"
         style="fill:#000000;fill-opacity:1">
        <g
           id="g2829"
           transform="translate(335.458,730)"
           style="fill:#000000;fill-opacity:1">
          <path
             d="M 0,0 C 0,0.138 -0.112,0.243 -0.245,0.243 C -0.383,0.243 -0.495,0.135 -0.495,0 C -0.495,-0.135 -0.383,-0.242 -0.245,-0.242 C -0.112,-0.242 0,-0.135 0,0 M -0.054,-0.512 L -0.441,-0.512 L -0.441,-2.316 L -0.054,-2.316 L -0.054,-0.512 z"
             style="fill:#000000;fill-opacity:1;fill-rule:nonzero;stroke:none"
             id="path2831" />
        </g>
        <g
           id="g2833"
           transform="translate(337.1533,728.6162)"
           style="fill:#000000;fill-opacity:1">
          <path
             d="M 0,0 C 0,-0.31 -0.16,-0.652 -0.446,-0.652 C -0.693,-0.652 -0.807,-0.448 -0.807,-0.083 C -0.807,0.404 -0.596,0.595 -0.287,0.595 C -0.192,0.595 -0.098,0.583 0,0.562 L 0,0 z M 0.386,-0.936 L 0.386,1.714 L 0,1.714 L 0,0.886 C -0.098,0.893 -0.185,0.899 -0.272,0.899 C -0.857,0.899 -1.213,0.503 -1.213,-0.12 C -1.213,-0.646 -0.993,-0.972 -0.552,-0.972 C -0.272,-0.972 -0.062,-0.819 0.037,-0.598 L 0.044,-0.598 C 0.026,-0.699 0.019,-0.842 0.019,-0.936 L 0.386,-0.936 z"
             style="fill:#000000;fill-opacity:1;fill-rule:nonzero;stroke:none"
             id="path2835" />
        </g>
        <g
           id="g2837"
           transform="translate(339.3086,728.8516)"
           style="fill:#000000;fill-opacity:1">
          <path
             d="M 0,0 C 0,-0.234 -0.159,-0.369 -0.401,-0.369 C -0.662,-0.369 -0.807,-0.23 -0.807,0.005 C -0.807,0.225 -0.654,0.381 -0.398,0.381 C -0.148,0.381 0,0.239 0,0 M 0.5,-1.408 C 0.5,-1.071 0.279,-0.888 -0.112,-0.888 L -0.42,-0.888 C -0.637,-0.888 -0.717,-0.851 -0.717,-0.759 C -0.717,-0.707 -0.684,-0.651 -0.611,-0.622 C -0.558,-0.633 -0.474,-0.64 -0.405,-0.64 C 0.102,-0.64 0.373,-0.365 0.373,0.026 C 0.373,0.156 0.326,0.265 0.25,0.326 L 0.525,0.326 L 0.525,0.631 L -0.083,0.631 C -0.181,0.653 -0.271,0.668 -0.38,0.668 C -0.893,0.668 -1.183,0.348 -1.183,-0.032 C -1.183,-0.256 -1.092,-0.44 -0.915,-0.539 C -1.041,-0.594 -1.121,-0.718 -1.121,-0.851 C -1.121,-0.971 -1.052,-1.063 -0.943,-1.118 C -1.1,-1.197 -1.232,-1.368 -1.232,-1.571 C -1.232,-1.92 -0.94,-2.101 -0.47,-2.101 C 0.108,-2.101 0.5,-1.794 0.5,-1.408 M 0.116,-1.459 C 0.116,-1.655 -0.072,-1.801 -0.409,-1.801 C -0.669,-1.801 -0.85,-1.691 -0.85,-1.499 C -0.85,-1.376 -0.773,-1.266 -0.651,-1.197 C -0.622,-1.201 -0.586,-1.201 -0.553,-1.201 L -0.218,-1.201 C 0.011,-1.201 0.116,-1.303 0.116,-1.459"
             style="fill:#000000;fill-opacity:1;fill-rule:nonzero;stroke:none"
             id="path2839" />
        </g>
        <g
           id="g2841"
           transform="translate(341.3584,728.8359)"
           style="fill:#000000;fill-opacity:1">
          <path
             d="M 0,0 L -0.76,0 C -0.728,0.242 -0.576,0.4 -0.36,0.4 C -0.133,0.4 0.008,0.246 0,0 M 0.387,-0.09 C 0.387,0.336 0.166,0.688 -0.346,0.688 C -0.868,0.688 -1.166,0.282 -1.166,-0.26 C -1.166,-0.903 -0.857,-1.191 -0.299,-1.191 C -0.079,-1.191 0.142,-1.151 0.321,-1.076 L 0.285,-0.768 C 0.138,-0.842 -0.054,-0.886 -0.237,-0.886 C -0.594,-0.886 -0.777,-0.694 -0.767,-0.271 L 0.376,-0.271 C 0.383,-0.203 0.387,-0.141 0.387,-0.09"
             style="fill:#000000;fill-opacity:1;fill-rule:nonzero;stroke:none"
             id="path2843" />
        </g>
        <g
           id="g2845"
           transform="translate(343.4277,727.6846)"
           style="fill:#000000;fill-opacity:1">
          <path
             d="M 0,0 L 0,1.163 C 0,1.389 -0.062,1.519 -0.267,1.519 C -0.536,1.519 -0.733,1.231 -0.733,0.872 L -0.733,0 L -1.12,0 L -1.12,1.804 L -0.752,1.804 C -0.752,1.71 -0.759,1.555 -0.776,1.453 L -0.773,1.45 C -0.669,1.681 -0.453,1.839 -0.151,1.839 C 0.258,1.839 0.386,1.584 0.386,1.265 L 0.386,0 L 0,0 z"
             style="fill:#000000;fill-opacity:1;fill-rule:nonzero;stroke:none"
             id="path2847" />
        </g>
        <g
           id="g2849"
           transform="translate(345.0801,730.0449)"
           style="fill:#000000;fill-opacity:1">
          <path
             d="M 0,0 C 0,0.12 -0.099,0.217 -0.221,0.217 C -0.345,0.217 -0.439,0.12 -0.439,0 C -0.439,-0.123 -0.345,-0.221 -0.221,-0.221 C -0.099,-0.221 0,-0.123 0,0 M 0.706,0 C 0.706,0.12 0.608,0.217 0.489,0.217 C 0.366,0.217 0.268,0.12 0.268,0 C 0.268,-0.123 0.366,-0.221 0.489,-0.221 C 0.608,-0.221 0.706,-0.123 0.706,0 M 0.986,-1.423 C 0.986,-0.784 0.646,-0.521 0.164,-0.521 C -0.383,-0.521 -0.732,-0.934 -0.732,-1.481 C -0.732,-2.122 -0.408,-2.4 0.091,-2.4 C 0.624,-2.4 0.986,-1.983 0.986,-1.423 M 0.587,-1.449 C 0.587,-1.87 0.377,-2.067 0.128,-2.067 C -0.173,-2.067 -0.332,-1.852 -0.332,-1.441 C -0.332,-1.024 -0.104,-0.842 0.131,-0.842 C 0.439,-0.842 0.587,-1.061 0.587,-1.449"
             style="fill:#000000;fill-opacity:1;fill-rule:nonzero;stroke:none"
             id="path2851" />
        </g>
        <g
           id="g2853"
           transform="translate(346.9014,727.6445)"
           style="fill:#000000;fill-opacity:1">
          <path
             d="M 0,0 C -0.134,0 -0.269,0.015 -0.381,0.036 L -0.37,0.364 C -0.258,0.331 -0.116,0.306 0.021,0.306 C 0.233,0.306 0.379,0.396 0.379,0.546 C 0.379,0.91 -0.413,0.692 -0.413,1.317 C -0.413,1.631 -0.159,1.878 0.332,1.878 C 0.438,1.878 0.561,1.863 0.67,1.846 L 0.658,1.528 C 0.55,1.562 0.423,1.58 0.307,1.58 C 0.091,1.58 -0.015,1.492 -0.015,1.354 C -0.015,1.004 0.785,1.184 0.785,0.583 C 0.785,0.244 0.484,0 0,0"
             style="fill:#000000;fill-opacity:1;fill-rule:nonzero;stroke:none"
             id="path2855" />
        </g>
        <g
           id="g2857"
           transform="translate(348.5439,727.6445)"
           style="fill:#000000;fill-opacity:1">
          <path
             d="M 0,0 C -0.135,0 -0.269,0.015 -0.381,0.036 L -0.37,0.364 C -0.258,0.331 -0.116,0.306 0.021,0.306 C 0.233,0.306 0.379,0.396 0.379,0.546 C 0.379,0.91 -0.414,0.692 -0.414,1.317 C -0.414,1.631 -0.16,1.878 0.332,1.878 C 0.437,1.878 0.561,1.863 0.669,1.846 L 0.658,1.528 C 0.55,1.562 0.423,1.58 0.306,1.58 C 0.091,1.58 -0.015,1.492 -0.015,1.354 C -0.015,1.004 0.785,1.184 0.785,0.583 C 0.785,0.244 0.484,0 0,0"
             style="fill:#000000;fill-opacity:1;fill-rule:nonzero;stroke:none"
             id="path2859" />
        </g>
        <g
           id="g2861"
           transform="translate(350.0869,729.7578)"
           style="fill:#000000;fill-opacity:1">
          <path
             d="M 0,0 C -0.137,0 -0.249,0.107 -0.249,0.242 C -0.249,0.377 -0.137,0.485 0,0.485 C 0.134,0.485 0.246,0.38 0.246,0.242 C 0.246,0.107 0.134,0 0,0 M -0.195,-0.27 L 0.192,-0.27 L 0.192,-2.074 L -0.195,-2.074 L -0.195,-0.27 z"
             style="fill:#000000;fill-opacity:1;fill-rule:nonzero;stroke:none"
             id="path2863" />
        </g>
        <g
           id="g2865"
           transform="translate(351.2559,727.6445)"
           style="fill:#000000;fill-opacity:1">
          <path
             d="M 0,0 C -0.135,0 -0.269,0.015 -0.381,0.036 L -0.37,0.364 C -0.258,0.331 -0.117,0.306 0.021,0.306 C 0.233,0.306 0.379,0.396 0.379,0.546 C 0.379,0.91 -0.414,0.692 -0.414,1.317 C -0.414,1.631 -0.16,1.878 0.331,1.878 C 0.438,1.878 0.561,1.863 0.669,1.846 L 0.658,1.528 C 0.55,1.562 0.422,1.58 0.306,1.58 C 0.091,1.58 -0.016,1.492 -0.016,1.354 C -0.016,1.004 0.785,1.184 0.785,0.583 C 0.785,0.244 0.483,0 0,0"
             style="fill:#000000;fill-opacity:1;fill-rule:nonzero;stroke:none"
             id="path2867" />
        </g>
        <g
           id="g2869"
           transform="translate(353.2578,727.6504)"
           style="fill:#000000;fill-opacity:1">
          <path
             d="M 0,0 C -0.464,0 -0.801,0.229 -0.801,0.874 C -0.801,1.452 -0.507,1.865 0.113,1.865 C 0.247,1.865 0.385,1.849 0.505,1.813 L 0.465,1.478 C 0.356,1.518 0.232,1.546 0.103,1.546 C -0.228,1.546 -0.395,1.302 -0.395,0.918 C -0.395,0.586 -0.274,0.334 0.084,0.334 C 0.222,0.334 0.37,0.367 0.476,0.421 L 0.508,0.091 C 0.389,0.044 0.2,0 0,0"
             style="fill:#000000;fill-opacity:1;fill-rule:nonzero;stroke:none"
             id="path2871" />
        </g>
        <g
           id="g2873"
           transform="translate(355.4023,727.6846)"
           style="fill:#000000;fill-opacity:1">
          <path
             d="M 0,0 L 0,1.163 C 0,1.389 -0.061,1.519 -0.266,1.519 C -0.536,1.519 -0.733,1.231 -0.733,0.868 L -0.733,0 L -1.12,0 L -1.12,2.646 L -0.733,2.646 L -0.733,1.831 C -0.733,1.721 -0.74,1.569 -0.767,1.472 L -0.759,1.468 C -0.654,1.692 -0.442,1.839 -0.151,1.839 C 0.259,1.839 0.386,1.584 0.386,1.265 L 0.386,0 L 0,0 z"
             style="fill:#000000;fill-opacity:1;fill-rule:nonzero;stroke:none"
             id="path2875" />
        </g>
        <g
           id="g2877"
           transform="translate(357.4951,728.8359)"
           style="fill:#000000;fill-opacity:1">
          <path
             d="M 0,0 L -0.76,0 C -0.728,0.242 -0.576,0.4 -0.359,0.4 C -0.133,0.4 0.008,0.246 0,0 M 0.387,-0.09 C 0.387,0.336 0.166,0.688 -0.346,0.688 C -0.868,0.688 -1.165,0.282 -1.165,-0.26 C -1.165,-0.903 -0.857,-1.191 -0.299,-1.191 C -0.079,-1.191 0.141,-1.151 0.321,-1.076 L 0.286,-0.768 C 0.138,-0.842 -0.054,-0.886 -0.237,-0.886 C -0.594,-0.886 -0.777,-0.694 -0.767,-0.271 L 0.376,-0.271 C 0.384,-0.203 0.387,-0.141 0.387,-0.09"
             style="fill:#000000;fill-opacity:1;fill-rule:nonzero;stroke:none"
             id="path2879" />
        </g>
        <g
           id="g2881"
           transform="translate(360.0596,729.7969)"
           style="fill:#000000;fill-opacity:1">
          <path
             d="M 0,0 L 0,-2.112 L -0.394,-2.112 L -0.394,0 L -1.063,0 L -1.063,0.333 L 0.674,0.333 L 0.674,0 L 0,0 z"
             style="fill:#000000;fill-opacity:1;fill-rule:nonzero;stroke:none"
             id="path2883" />
        </g>
        <g
           id="g2885"
           transform="translate(361.9063,728.8359)"
           style="fill:#000000;fill-opacity:1">
          <path
             d="M 0,0 L -0.76,0 C -0.728,0.242 -0.576,0.4 -0.359,0.4 C -0.133,0.4 0.007,0.246 0,0 M 0.387,-0.09 C 0.387,0.336 0.166,0.688 -0.346,0.688 C -0.868,0.688 -1.166,0.282 -1.166,-0.26 C -1.166,-0.903 -0.857,-1.191 -0.299,-1.191 C -0.079,-1.191 0.141,-1.151 0.321,-1.076 L 0.285,-0.768 C 0.138,-0.842 -0.054,-0.886 -0.237,-0.886 C -0.594,-0.886 -0.778,-0.694 -0.768,-0.271 L 0.376,-0.271 C 0.383,-0.203 0.387,-0.141 0.387,-0.09"
             style="fill:#000000;fill-opacity:1;fill-rule:nonzero;stroke:none"
             id="path2887" />
        </g>
        <g
           id="g2889"
           transform="translate(363.5098,727.6504)"
           style="fill:#000000;fill-opacity:1">
          <path
             d="M 0,0 C -0.464,0 -0.801,0.229 -0.801,0.874 C -0.801,1.452 -0.507,1.865 0.112,1.865 C 0.247,1.865 0.385,1.849 0.504,1.813 L 0.464,1.478 C 0.355,1.518 0.232,1.546 0.102,1.546 C -0.229,1.546 -0.395,1.302 -0.395,0.918 C -0.395,0.586 -0.275,0.334 0.084,0.334 C 0.222,0.334 0.37,0.367 0.475,0.421 L 0.508,0.091 C 0.389,0.044 0.2,0 0,0"
             style="fill:#000000;fill-opacity:1;fill-rule:nonzero;stroke:none"
             id="path2891" />
        </g>
        <g
           id="g2893"
           transform="translate(365.6543,727.6846)"
           style="fill:#000000;fill-opacity:1">
          <path
             d="M 0,0 L 0,1.163 C 0,1.389 -0.062,1.519 -0.267,1.519 C -0.536,1.519 -0.734,1.231 -0.734,0.868 L -0.734,0 L -1.12,0 L -1.12,2.646 L -0.734,2.646 L -0.734,1.831 C -0.734,1.721 -0.741,1.569 -0.767,1.472 L -0.759,1.468 C -0.654,1.692 -0.442,1.839 -0.151,1.839 C 0.258,1.839 0.385,1.584 0.385,1.265 L 0.385,0 L 0,0 z"
             style="fill:#000000;fill-opacity:1;fill-rule:nonzero;stroke:none"
             id="path2895" />
        </g>
        <g
           id="g2897"
           transform="translate(367.8477,727.6846)"
           style="fill:#000000;fill-opacity:1">
          <path
             d="M 0,0 L 0,1.163 C 0,1.389 -0.062,1.519 -0.267,1.519 C -0.536,1.519 -0.733,1.231 -0.733,0.872 L -0.733,0 L -1.12,0 L -1.12,1.804 L -0.752,1.804 C -0.752,1.71 -0.759,1.555 -0.777,1.453 L -0.773,1.45 C -0.669,1.681 -0.453,1.839 -0.151,1.839 C 0.258,1.839 0.385,1.584 0.385,1.265 L 0.385,0 L 0,0 z"
             style="fill:#000000;fill-opacity:1;fill-rule:nonzero;stroke:none"
             id="path2899" />
        </g>
        <g
           id="g2901"
           transform="translate(369.3613,730)"
           style="fill:#000000;fill-opacity:1">
          <path
             d="M 0,0 C 0,0.138 -0.112,0.243 -0.246,0.243 C -0.383,0.243 -0.495,0.135 -0.495,0 C -0.495,-0.135 -0.383,-0.242 -0.246,-0.242 C -0.112,-0.242 0,-0.135 0,0 M -0.054,-0.512 L -0.441,-0.512 L -0.441,-2.316 L -0.054,-2.316 L -0.054,-0.512 z"
             style="fill:#000000;fill-opacity:1;fill-rule:nonzero;stroke:none"
             id="path2903" />
        </g>
        <g
           id="g2905"
           transform="translate(370.2842,727.6445)"
           style="fill:#000000;fill-opacity:1">
          <path
             d="M 0,0 C -0.134,0 -0.269,0.015 -0.381,0.036 L -0.37,0.364 C -0.258,0.331 -0.116,0.306 0.021,0.306 C 0.233,0.306 0.379,0.396 0.379,0.546 C 0.379,0.91 -0.414,0.692 -0.414,1.317 C -0.414,1.631 -0.159,1.878 0.332,1.878 C 0.438,1.878 0.561,1.863 0.669,1.846 L 0.658,1.528 C 0.55,1.562 0.423,1.58 0.307,1.58 C 0.091,1.58 -0.015,1.492 -0.015,1.354 C -0.015,1.004 0.785,1.184 0.785,0.583 C 0.785,0.244 0.484,0 0,0"
             style="fill:#000000;fill-opacity:1;fill-rule:nonzero;stroke:none"
             id="path2907" />
        </g>
        <g
           id="g2909"
           transform="translate(372.2871,727.6504)"
           style="fill:#000000;fill-opacity:1">
          <path
             d="M 0,0 C -0.464,0 -0.801,0.229 -0.801,0.874 C -0.801,1.452 -0.508,1.865 0.112,1.865 C 0.247,1.865 0.385,1.849 0.504,1.813 L 0.465,1.478 C 0.355,1.518 0.232,1.546 0.102,1.546 C -0.229,1.546 -0.396,1.302 -0.396,0.918 C -0.396,0.586 -0.275,0.334 0.084,0.334 C 0.221,0.334 0.37,0.367 0.476,0.421 L 0.508,0.091 C 0.389,0.044 0.199,0 0,0"
             style="fill:#000000;fill-opacity:1;fill-rule:nonzero;stroke:none"
             id="path2911" />
        </g>
        <g
           id="g2913"
           transform="translate(374.4316,727.6846)"
           style="fill:#000000;fill-opacity:1">
          <path
             d="M 0,0 L 0,1.163 C 0,1.389 -0.062,1.519 -0.267,1.519 C -0.536,1.519 -0.734,1.231 -0.734,0.868 L -0.734,0 L -1.121,0 L -1.121,2.646 L -0.734,2.646 L -0.734,1.831 C -0.734,1.721 -0.741,1.569 -0.767,1.472 L -0.759,1.468 C -0.655,1.692 -0.443,1.839 -0.151,1.839 C 0.258,1.839 0.386,1.584 0.386,1.265 L 0.386,0 L 0,0 z"
             style="fill:#000000;fill-opacity:1;fill-rule:nonzero;stroke:none"
             id="path2915" />
        </g>
        <g
           id="g2917"
           transform="translate(376.5244,728.8359)"
           style="fill:#000000;fill-opacity:1">
          <path
             d="M 0,0 L -0.76,0 C -0.728,0.242 -0.577,0.4 -0.36,0.4 C -0.134,0.4 0.007,0.246 0,0 M 0.386,-0.09 C 0.386,0.336 0.165,0.688 -0.346,0.688 C -0.868,0.688 -1.166,0.282 -1.166,-0.26 C -1.166,-0.903 -0.857,-1.191 -0.3,-1.191 C -0.079,-1.191 0.141,-1.151 0.321,-1.076 L 0.285,-0.768 C 0.137,-0.842 -0.055,-0.886 -0.237,-0.886 C -0.595,-0.886 -0.778,-0.694 -0.767,-0.271 L 0.375,-0.271 C 0.382,-0.203 0.386,-0.141 0.386,-0.09"
             style="fill:#000000;fill-opacity:1;fill-rule:nonzero;stroke:none"
             id="path2919" />
        </g>
        <g
           id="g2921"
           transform="translate(379.9326,727.6846)"
           style="fill:#000000;fill-opacity:1">
          <path
             d="M 0,0 L 0,1.1 L -1.16,1.1 L -1.16,0 L -1.554,0 L -1.554,2.444 L -1.16,2.444 L -1.16,1.438 L 0,1.438 L 0,2.444 L 0.386,2.444 L 0.386,0 L 0,0 z"
             style="fill:#000000;fill-opacity:1;fill-rule:nonzero;stroke:none"
             id="path2923" />
        </g>
        <g
           id="g2925"
           transform="translate(382.1748,728.5957)"
           style="fill:#000000;fill-opacity:1">
          <path
             d="M 0,0 C 0,-0.421 -0.21,-0.618 -0.46,-0.618 C -0.761,-0.618 -0.921,-0.402 -0.921,0.008 C -0.921,0.425 -0.691,0.607 -0.457,0.607 C -0.149,0.607 0,0.389 0,0 M 0.398,0.026 C 0.398,0.665 0.058,0.928 -0.424,0.928 C -0.971,0.928 -1.32,0.516 -1.32,-0.032 C -1.32,-0.673 -0.995,-0.951 -0.496,-0.951 C 0.036,-0.951 0.398,-0.534 0.398,0.026"
             style="fill:#000000;fill-opacity:1;fill-rule:nonzero;stroke:none"
             id="path2927" />
        </g>
        <g
           id="g2929"
           transform="translate(383.7695,727.6504)"
           style="fill:#000000;fill-opacity:1">
          <path
             d="M 0,0 C -0.465,0 -0.802,0.229 -0.802,0.874 C -0.802,1.452 -0.508,1.865 0.112,1.865 C 0.246,1.865 0.384,1.849 0.504,1.813 L 0.464,1.478 C 0.354,1.518 0.232,1.546 0.101,1.546 C -0.229,1.546 -0.396,1.302 -0.396,0.918 C -0.396,0.586 -0.276,0.334 0.082,0.334 C 0.222,0.334 0.369,0.367 0.474,0.421 L 0.507,0.091 C 0.387,0.044 0.199,0 0,0"
             style="fill:#000000;fill-opacity:1;fill-rule:nonzero;stroke:none"
             id="path2931" />
        </g>
        <g
           id="g2933"
           transform="translate(385.9131,727.6846)"
           style="fill:#000000;fill-opacity:1">
          <path
             d="M 0,0 L 0,1.163 C 0,1.389 -0.062,1.519 -0.267,1.519 C -0.536,1.519 -0.733,1.231 -0.733,0.868 L -0.733,0 L -1.121,0 L -1.121,2.646 L -0.733,2.646 L -0.733,1.831 C -0.733,1.721 -0.741,1.569 -0.767,1.472 L -0.759,1.468 C -0.655,1.692 -0.442,1.839 -0.151,1.839 C 0.259,1.839 0.386,1.584 0.386,1.265 L 0.386,0 L 0,0 z"
             style="fill:#000000;fill-opacity:1;fill-rule:nonzero;stroke:none"
             id="path2935" />
        </g>
        <g
           id="g2937"
           transform="translate(387.2793,727.6445)"
           style="fill:#000000;fill-opacity:1">
          <path
             d="M 0,0 C -0.134,0 -0.267,0.015 -0.38,0.036 L -0.369,0.364 C -0.256,0.331 -0.115,0.306 0.022,0.306 C 0.233,0.306 0.38,0.396 0.38,0.546 C 0.38,0.91 -0.413,0.692 -0.413,1.317 C -0.413,1.631 -0.158,1.878 0.333,1.878 C 0.438,1.878 0.562,1.863 0.67,1.846 L 0.659,1.528 C 0.551,1.562 0.424,1.58 0.307,1.58 C 0.092,1.58 -0.014,1.492 -0.014,1.354 C -0.014,1.004 0.786,1.184 0.786,0.583 C 0.786,0.244 0.485,0 0,0"
             style="fill:#000000;fill-opacity:1;fill-rule:nonzero;stroke:none"
             id="path2939" />
        </g>
        <g
           id="g2941"
           transform="translate(389.2832,727.6504)"
           style="fill:#000000;fill-opacity:1">
          <path
             d="M 0,0 C -0.464,0 -0.802,0.229 -0.802,0.874 C -0.802,1.452 -0.508,1.865 0.112,1.865 C 0.247,1.865 0.384,1.849 0.504,1.813 L 0.464,1.478 C 0.355,1.518 0.232,1.546 0.102,1.546 C -0.229,1.546 -0.395,1.302 -0.395,0.918 C -0.395,0.586 -0.275,0.334 0.084,0.334 C 0.221,0.334 0.37,0.367 0.475,0.421 L 0.508,0.091 C 0.389,0.044 0.199,0 0,0"
             style="fill:#000000;fill-opacity:1;fill-rule:nonzero;stroke:none"
             id="path2943" />
        </g>
        <g
           id="g2945"
           transform="translate(391.4268,727.6846)"
           style="fill:#000000;fill-opacity:1">
          <path
             d="M 0,0 L 0,1.163 C 0,1.389 -0.06,1.519 -0.266,1.519 C -0.536,1.519 -0.733,1.231 -0.733,0.868 L -0.733,0 L -1.12,0 L -1.12,2.646 L -0.733,2.646 L -0.733,1.831 C -0.733,1.721 -0.74,1.569 -0.766,1.472 L -0.758,1.468 C -0.654,1.692 -0.441,1.839 -0.15,1.839 C 0.259,1.839 0.386,1.584 0.386,1.265 L 0.386,0 L 0,0 z"
             style="fill:#000000;fill-opacity:1;fill-rule:nonzero;stroke:none"
             id="path2947" />
        </g>
        <g
           id="g2949"
           transform="translate(393.6387,727.6797)"
           style="fill:#000000;fill-opacity:1">
          <path
             d="M 0,0 C 0,0.094 0.007,0.248 0.024,0.35 L 0.021,0.353 C -0.084,0.123 -0.302,-0.035 -0.606,-0.035 C -1.018,-0.035 -1.144,0.22 -1.144,0.539 L -1.144,1.803 L -0.759,1.803 L -0.759,0.64 C -0.759,0.415 -0.697,0.284 -0.491,0.284 C -0.218,0.284 -0.019,0.571 -0.019,0.932 L -0.019,1.803 L 0.368,1.803 L 0.368,0 L 0,0 z"
             style="fill:#000000;fill-opacity:1;fill-rule:nonzero;stroke:none"
             id="path2951" />
        </g>
        <path
           d="M 394.693,730.33 L 395.08,730.33 L 395.08,727.684 L 394.693,727.684 L 394.693,730.33 z"
           style="fill:#000000;fill-opacity:1;fill-rule:nonzero;stroke:none"
           id="path2953" />
        <g
           id="g2955"
           transform="translate(396.7832,728.8359)"
           style="fill:#000000;fill-opacity:1">
          <path
             d="M 0,0 L -0.761,0 C -0.728,0.242 -0.576,0.4 -0.359,0.4 C -0.133,0.4 0.007,0.246 0,0 M 0.387,-0.09 C 0.387,0.336 0.166,0.688 -0.347,0.688 C -0.869,0.688 -1.166,0.282 -1.166,-0.26 C -1.166,-0.903 -0.857,-1.191 -0.299,-1.191 C -0.08,-1.191 0.141,-1.151 0.321,-1.076 L 0.286,-0.768 C 0.138,-0.842 -0.054,-0.886 -0.238,-0.886 C -0.595,-0.886 -0.778,-0.694 -0.768,-0.271 L 0.376,-0.271 C 0.383,-0.203 0.387,-0.141 0.387,-0.09"
             style="fill:#000000;fill-opacity:1;fill-rule:nonzero;stroke:none"
             id="path2957" />
        </g>
        <g
           id="g2959"
           transform="translate(398.5176,727.6836)"
           style="fill:#000000;fill-opacity:1">
          <path
             d="M 0,0 L 0,0.3 L 0.964,1.832 C 1.022,1.927 1.08,2.011 1.145,2.098 C 1.04,2.094 0.899,2.094 0.649,2.094 L 0.037,2.094 L 0.037,2.445 L 1.612,2.445 L 1.612,2.134 L 0.599,0.549 C 0.559,0.48 0.52,0.422 0.472,0.353 C 0.537,0.36 0.732,0.36 1.043,0.36 L 1.627,0.36 L 1.627,0 L 0,0 z"
             style="fill:#000000;fill-opacity:1;fill-rule:nonzero;stroke:none"
             id="path2961" />
        </g>
        <g
           id="g2963"
           transform="translate(401.9531,730.0449)"
           style="fill:#000000;fill-opacity:1">
          <path
             d="M 0,0 C 0,0.12 -0.098,0.217 -0.217,0.217 C -0.34,0.217 -0.438,0.12 -0.438,0 C -0.438,-0.123 -0.34,-0.221 -0.217,-0.221 C -0.098,-0.221 0,-0.123 0,0 M -0.705,0 C -0.705,0.12 -0.804,0.217 -0.927,0.217 C -1.05,0.217 -1.145,0.12 -1.145,0 C -1.145,-0.123 -1.05,-0.221 -0.927,-0.221 C -0.804,-0.221 -0.705,-0.123 -0.705,0 M 0.199,-2.365 L 0.199,-0.563 L -0.188,-0.563 L -0.188,-1.434 C -0.188,-1.794 -0.387,-2.081 -0.659,-2.081 C -0.865,-2.081 -0.928,-1.95 -0.928,-1.726 L -0.928,-0.563 L -1.313,-0.563 L -1.313,-1.826 C -1.313,-2.146 -1.186,-2.4 -0.775,-2.4 C -0.471,-2.4 -0.252,-2.242 -0.148,-2.013 L -0.144,-2.016 C -0.161,-2.117 -0.169,-2.271 -0.169,-2.365 L 0.199,-2.365 z"
             style="fill:#000000;fill-opacity:1;fill-rule:nonzero;stroke:none"
             id="path2965" />
        </g>
        <g
           id="g2967"
           transform="translate(403.7588,729.1436)"
           style="fill:#000000;fill-opacity:1">
          <path
             d="M 0,0 C -0.358,0.065 -0.532,-0.186 -0.532,-0.726 L -0.532,-1.459 L -0.919,-1.459 L -0.919,0.344 L -0.551,0.344 C -0.551,0.243 -0.562,0.083 -0.587,-0.055 L -0.579,-0.055 C -0.5,0.188 -0.318,0.413 0.019,0.38 L 0,0 z"
             style="fill:#000000;fill-opacity:1;fill-rule:nonzero;stroke:none"
             id="path2969" />
        </g>
        <g
           id="g2971"
           transform="translate(404.4385,729.7578)"
           style="fill:#000000;fill-opacity:1">
          <path
             d="M 0,0 C -0.138,0 -0.25,0.107 -0.25,0.242 C -0.25,0.377 -0.138,0.485 0,0.485 C 0.133,0.485 0.245,0.38 0.245,0.242 C 0.245,0.107 0.133,0 0,0 M -0.195,-0.27 L 0.191,-0.27 L 0.191,-2.074 L -0.195,-2.074 L -0.195,-0.27 z"
             style="fill:#000000;fill-opacity:1;fill-rule:nonzero;stroke:none"
             id="path2973" />
        </g>
        <g
           id="g2975"
           transform="translate(405.9678,727.6504)"
           style="fill:#000000;fill-opacity:1">
          <path
             d="M 0,0 C -0.465,0 -0.802,0.229 -0.802,0.874 C -0.802,1.452 -0.508,1.865 0.111,1.865 C 0.246,1.865 0.384,1.849 0.503,1.813 L 0.464,1.478 C 0.354,1.518 0.231,1.546 0.101,1.546 C -0.229,1.546 -0.396,1.302 -0.396,0.918 C -0.396,0.586 -0.276,0.334 0.083,0.334 C 0.221,0.334 0.369,0.367 0.474,0.421 L 0.507,0.091 C 0.388,0.044 0.199,0 0,0"
             style="fill:#000000;fill-opacity:1;fill-rule:nonzero;stroke:none"
             id="path2977" />
        </g>
        <g
           id="g2979"
           transform="translate(408.1104,727.6846)"
           style="fill:#000000;fill-opacity:1">
          <path
             d="M 0,0 L 0,1.163 C 0,1.389 -0.06,1.519 -0.266,1.519 C -0.535,1.519 -0.733,1.231 -0.733,0.868 L -0.733,0 L -1.119,0 L -1.119,2.646 L -0.733,2.646 L -0.733,1.831 C -0.733,1.721 -0.74,1.569 -0.766,1.472 L -0.758,1.468 C -0.653,1.692 -0.442,1.839 -0.149,1.839 C 0.259,1.839 0.387,1.584 0.387,1.265 L 0.387,0 L 0,0 z"
             style="fill:#000000;fill-opacity:1;fill-rule:nonzero;stroke:none"
             id="path2981" />
        </g>        
      </g>
    </g>
  </g>
</svg>
